<?xml version="1.0" encoding="UTF-8"?>
<!-- Uploaded to: ICON Repo, www.svgrepo.com, Generator: ICON Repo Mixer Tools -->
<svg fill="#000000" width="800px" height="800px" version="1.1" viewBox="144 144 512 512" xmlns="http://www.w3.org/2000/svg">
 <g>
  <path d="m467.7 306.9-106.01 40.621c-5.5508 2.1328-9.9375 6.5195-12.07 12.07l-40.934 106.01v-0.003906c-1.4453 3.7969-1.7539 7.9258-0.89844 11.895 0.85547 3.9688 2.8477 7.6016 5.7266 10.465 3.918 3.9414 9.2422 6.168 14.801 6.1914 2.5781 0.011718 5.1406-0.44922 7.5547-1.3633l106.12-40.305c5.5508-2.1328 9.9375-6.5195 12.07-12.07l40.406-106.33c1.9883-5.0898 1.9102-10.758-0.21875-15.793-2.125-5.0352-6.1328-9.043-11.168-11.172-5.0352-2.125-10.703-2.2031-15.797-0.21875zm-49.648 109.47-53.109 20.992 20.469-53.109 53.215-20.992z"/>
  <path d="m400 190.08c-55.676 0-109.07 22.117-148.44 61.484s-61.484 92.762-61.484 148.44c0 55.672 22.117 109.07 61.484 148.43 39.367 39.367 92.762 61.484 148.44 61.484 55.672 0 109.07-22.117 148.43-61.484 39.367-39.367 61.484-92.762 61.484-148.43 0-36.852-9.6992-73.051-28.121-104.96-18.426-31.914-44.926-58.414-76.84-76.836-31.91-18.426-68.109-28.125-104.96-28.125zm0 377.86c-44.543 0-87.258-17.691-118.75-49.188-31.496-31.492-49.188-74.207-49.188-118.75 0-44.543 17.691-87.258 49.188-118.75 31.492-31.496 74.207-49.188 118.75-49.188 44.539 0 87.254 17.691 118.75 49.188 31.496 31.492 49.188 74.207 49.188 118.75 0 29.477-7.7578 58.438-22.496 83.965-14.742 25.531-35.941 46.73-61.473 61.473-25.527 14.738-54.488 22.496-83.965 22.496z"/>
 </g>
</svg>