<?xml version="1.0" encoding="UTF-8"?>
<!-- Uploaded to: ICON Repo, www.svgrepo.com, Generator: ICON Repo Mixer Tools -->
<svg fill="#000000" width="800px" height="800px" version="1.1" viewBox="144 144 512 512" xmlns="http://www.w3.org/2000/svg">
 <path d="m630.77 339.1c-0.42578-1.875-1.6055-3.4961-3.2266-4.5039l-211.54-131.15c-9.6211-5.9844-22.418-5.9844-32.039 0l-211.54 131.15c-1.6367 1.0078-2.8008 2.6289-3.2266 4.5039-0.45703 1.875-0.15625 3.8398 0.89844 5.4805l24.387 39.328c2.125 3.4023 6.582 4.4414 9.9648 2.332l15.898-9.8594v217.39c0 4 3.2578 7.2422 7.2578 7.2422h344.76c4 0 7.2578-3.2422 7.2578-7.2422v-217.39l15.902 9.8555c1.1641 0.72266 2.4883 1.0859 3.8086 1.0859 2.3945 0 4.7695-1.2109 6.1562-3.418l24.387-39.328c1.0117-1.6367 1.3555-3.6055 0.88281-5.4766zm-181.12 247.43h-99.328v-145.1c0-8.7695 7.1328-15.902 15.902-15.902h67.527c8.7695 0 15.902 7.1484 15.902 15.902zm115.46 0h-100.98v-145.1c0-16.75-13.648-30.387-30.387-30.387h-67.527c-16.734 0-30.387 13.633-30.387 30.387v145.1h-101v-219.12l165.16-102.39 165.12 102.38zm31.898-216.42-193.21-119.77c-1.1641-0.72266-2.4883-1.0859-3.8086-1.0859-1.3242 0-2.6445 0.36328-3.8086 1.0859l-193.21 119.77-16.75-27.016 205.41-127.32c5.0078-3.1328 11.715-3.1328 16.734 0l205.41 127.32z"/>
</svg>