<?xml version="1.0" encoding="UTF-8"?>
<!-- Uploaded to: ICON Repo, www.svgrepo.com, Generator: ICON Repo Mixer Tools -->
<svg fill="#000000" width="800px" height="800px" version="1.1" viewBox="144 144 512 512" xmlns="http://www.w3.org/2000/svg">
 <g>
  <path d="m360.86 218.94c-78.285 0-141.98 63.773-141.98 142.16 0 78.391 63.691 142.16 141.98 142.16 33.031 0 65.254-11.66 90.734-32.824 6.7422-5.5664 13.16-11.984 19.102-19.102 20.707-25.352 32.141-57.422 32.141-90.234 0-78.383-63.688-142.16-141.98-142.16zm0 31.488c-60.945 0-110.53 49.645-110.53 110.67 0 4.3477-3.5195 7.8711-7.8633 7.8711-4.3398 0-7.8633-3.5234-7.8633-7.8711 0-69.707 56.637-126.41 126.25-126.41 4.3398 0 7.8633 3.5234 7.8633 7.8711 0.003906 4.3516-3.5195 7.875-7.8594 7.875z"/>
  <path d="m360.86 171.71c-104.3 0-189.15 84.957-189.15 189.39 0 104.43 84.852 189.39 189.15 189.39 44 0 86.898-15.504 120.77-43.633 8.9531-7.3945 17.52-15.973 25.52-25.551 27.633-33.828 42.859-76.523 42.859-120.21 0-104.43-84.852-189.39-189.15-189.39zm121.95 289.66c-6.6172 7.918-13.727 15.027-21.191 21.195-28.285 23.492-64.074 36.438-100.76 36.438-86.961 0-157.7-70.836-157.7-157.91s70.742-157.9 157.7-157.9c86.957 0 157.7 70.832 157.7 157.9 0 36.438-12.699 72.051-35.75 100.27z"/>
  <path d="m617.98 557.88-64.055-64.137c-3.0625-3.0664-8.0312-3.0664-11.094-0.023438l-6.6953 6.6523-29.504-29.617c-1.5586-1.5664-3.6797-2.4062-5.9102-2.3047-2.2031 0.097656-4.2695 1.1172-5.6914 2.8164-7.3164 8.7695-15.195 16.656-23.41 23.434-1.7031 1.4102-2.7422 3.4844-2.8477 5.6953-0.10938 2.2188 0.73047 4.375 2.2969 5.9414l29.559 29.59-6.6641 6.625c-1.4883 1.4766-2.3164 3.4766-2.3281 5.5742-0.007813 2.0938 0.82031 4.1016 2.3047 5.582l64.148 64.223c6.6719 6.6758 15.777 10.355 25.637 10.355 11.363 0 22.75-4.918 31.234-13.465 16.508-16.531 17.871-42.074 3.0195-56.941z"/>
 </g>
</svg>