<?xml version="1.0" encoding="UTF-8"?>
<!-- Uploaded to: ICON Repo, www.svgrepo.com, Generator: ICON Repo Mixer Tools -->
<svg fill="#000000" width="800px" height="800px" version="1.1" viewBox="144 144 512 512" xmlns="http://www.w3.org/2000/svg">
 <path d="m538.24 431.44v-101.17c0-49.281-26.289-94.82-68.969-119.46-42.68-24.641-95.266-24.641-137.95 0s-68.969 70.18-68.969 119.46v101.16l-53.809 40.309v55.418h382.89v-55.418zm-198.7-69.527c-5.668-0.085937-10.867-3.1562-13.676-8.0781-2.8086-4.9219-2.8086-10.961 0-15.883 2.8086-4.9219 8.0078-7.9961 13.676-8.082 5.6641 0.085937 10.863 3.1602 13.672 8.082 2.8125 4.9219 2.8125 10.961 0 15.883-2.8086 4.9219-8.0078 7.9922-13.672 8.0781zm60.457 0c-5.668-0.085937-10.867-3.1562-13.676-8.0781-2.8086-4.9219-2.8086-10.961 0-15.883 2.8086-4.9219 8.0078-7.9961 13.676-8.082 5.6641 0.085937 10.863 3.1602 13.672 8.082 2.8125 4.9219 2.8125 10.961 0 15.883-2.8086 4.9219-8.0078 7.9922-13.672 8.0781zm60.457 0c-5.668-0.085937-10.867-3.1562-13.676-8.0781s-2.8086-10.961 0-15.883 8.0078-7.9961 13.676-8.082c5.6641 0.085937 10.863 3.1602 13.676 8.082 2.8086 4.9219 2.8086 10.961 0 15.883-2.8125 4.9219-8.0117 7.9922-13.676 8.0781zm-119.71 185.4h118.5c0.12891 15.797-6.0547 30.996-17.18 42.211-11.125 11.219-26.27 17.527-42.066 17.527-15.801 0-30.945-6.3086-42.07-17.527-11.125-11.215-17.309-26.414-17.18-42.211z"/>
</svg>